<svg viewBox="0 0 63 63"
    xmlns="http://www.w3.org/2000/svg">
    <path fill-rule="evenodd" clip-rule="evenodd" d="M47.4275 4.87843L61.6215 0.558531C62.3868 0.325601 63.1022 1.04103 62.8693 1.80637L58.5494 16.0003C58.4946 16.1805 58.39 16.3415 58.2477 16.4648L26.6457 43.8532L26.597 43.9019C26.226 44.2729 26.2048 44.8675 26.5484 45.264L29.925 49.16C30.2686 49.5565 30.2474 50.1511 29.8764 50.522L28.3405 52.0579C27.9797 52.4188 27.405 52.45 27.0072 52.1305L22.4908 48.5028C22.3132 48.3602 22.0923 48.2825 21.8646 48.2825H20.5093C20.2441 48.2825 19.9898 48.3878 19.8022 48.5754L8.0743 60.3033L5.94418 62.4334C5.72659 62.651 5.42093 62.7563 5.11549 62.7189L1.96579 62.333C1.50989 62.2772 1.15065 61.918 1.0948 61.4621L0.708966 58.3124C0.671549 58.0069 0.776843 57.7013 0.994437 57.4837L3.12456 55.3535L14.8525 43.6256C15.04 43.4381 15.1454 43.1837 15.1454 42.9185V41.5633C15.1454 41.3355 15.0676 41.1146 14.925 40.9371L11.2974 36.4207C10.9778 36.0228 11.0091 35.4482 11.3699 35.0874L12.9058 33.5515C13.2768 33.1805 13.8714 33.1593 14.2679 33.5029L18.1639 36.8794C18.5603 37.223 19.1549 37.2018 19.5259 36.8309L19.5746 36.7822L46.963 5.18017C47.0864 5.03785 47.2474 4.93326 47.4275 4.87843ZM47.8589 7.08367L60.5868 2.84103L56.3442 15.569L25.2315 42.439C25.0547 40.4945 24.9663 39.5222 24.436 38.9919C23.9056 38.4615 22.9334 38.3731 20.9888 38.1964L47.8589 7.08367ZM14.4139 35.8324L17.0867 37.9112C17.318 38.0911 17.4533 38.3678 17.4533 38.6609C17.4533 39.1854 17.0281 39.6106 16.5036 39.6106C16.2105 39.6106 15.9338 39.4753 15.7539 39.2439L13.6751 36.5712C13.6032 36.4788 13.5642 36.365 13.5642 36.248C13.5642 35.9572 13.7999 35.7215 14.0907 35.7215C14.2078 35.7215 14.3215 35.7605 14.4139 35.8324ZM27.5916 49.0131L25.2899 46.1359C25.0424 45.8265 24.6282 45.7042 24.2523 45.8295C23.9776 45.9211 23.7599 46.1335 23.6617 46.4059L23.6576 46.4173C23.515 46.8127 23.6432 47.255 23.975 47.513L26.8567 49.7528C26.9491 49.8246 27.0636 49.8636 27.1806 49.8636C27.4697 49.8636 27.7064 49.6293 27.7064 49.3402C27.7064 49.2213 27.6659 49.106 27.5916 49.0131ZM21.7566 40.6712H19.3338C18.8571 40.6712 18.4467 41.0077 18.3532 41.4751L17.7475 44.5037C17.6075 45.2034 18.2245 45.8203 18.9242 45.6804L21.9527 45.0747C22.4201 44.9812 22.7566 44.5708 22.7566 44.0941V41.6712C22.7566 41.119 22.3089 40.6712 21.7566 40.6712ZM3.28783 57.7674L4.94933 57.2136C5.73109 56.953 6.47483 57.6968 6.21424 58.4785L5.66041 60.14C5.5243 60.5484 5.14216 60.8238 4.71173 60.8238H3.60406C3.05178 60.8238 2.60406 60.3761 2.60406 59.8238L2.60406 58.7161C2.60406 58.2857 2.87949 57.9036 3.28783 57.7674ZM15.2135 46.976L17.1475 47.943C17.3301 48.0343 17.5507 47.9985 17.6951 47.8541C17.924 47.6252 17.8614 47.2392 17.5718 47.0944L15.6378 46.1274C15.4552 46.0361 15.2346 46.0719 15.0902 46.2163C14.8613 46.4452 14.9239 46.8312 15.2135 46.976ZM11.8442 53.2463L9.91022 52.2793C9.62064 52.1345 9.55801 51.7485 9.78694 51.5196C9.93132 51.3752 10.1519 51.3394 10.3345 51.4307L12.2685 52.3977C12.5581 52.5425 12.6207 52.9285 12.3918 53.1574C12.2474 53.3018 12.0268 53.3376 11.8442 53.2463ZM13.4458 48.7437L15.3798 49.7107C15.5624 49.802 15.7829 49.7663 15.9273 49.6219C16.1562 49.393 16.0936 49.007 15.804 48.8622L13.87 47.8952C13.6874 47.8039 13.4669 47.8397 13.3225 47.984C13.0935 48.213 13.1562 48.5989 13.4458 48.7437ZM10.0764 55.014L8.14245 54.047C7.85286 53.9022 7.79024 53.5163 8.01917 53.2874C8.16354 53.143 8.38409 53.1072 8.56671 53.1985L10.5007 54.1655C10.7903 54.3103 10.8529 54.6962 10.624 54.9252C10.4796 55.0695 10.2591 55.1053 10.0764 55.014ZM11.678 50.5115L13.612 51.4785C13.7946 51.5698 14.0152 51.534 14.1595 51.3897C14.3885 51.1607 14.3258 50.7748 14.0363 50.63L12.1022 49.663C11.9196 49.5717 11.6991 49.6075 11.5547 49.7518C11.3258 49.9808 11.3884 50.3667 11.678 50.5115ZM8.30869 56.7818L6.37466 55.8148C6.08507 55.67 6.02245 55.2841 6.25138 55.0551C6.39575 54.9108 6.6163 54.875 6.79892 54.9663L8.73295 55.9333C9.02254 56.0781 9.08517 56.464 8.85623 56.693C8.71186 56.8373 8.49131 56.8731 8.30869 56.7818ZM54.8701 8.70711C54.4796 8.31658 53.8464 8.31658 53.4559 8.70711L28.7071 33.4558C28.3166 33.8464 28.3166 34.4795 28.7071 34.8701C29.0977 35.2606 29.7308 35.2606 30.1213 34.8701L54.8701 10.1213C55.2606 9.7308 55.2606 9.09763 54.8701 8.70711Z" />
</svg>
