<svg viewBox="0 0 70 59"
    xmlns="http://www.w3.org/2000/svg">
    <path fill-rule="evenodd" clip-rule="evenodd" d="M18.5232 32C12.3565 33.3333 0.0231593 38.1 0.0231593 46.5C-0.310174 50.6667 2.82316 59 18.0232 59C23.0232 59 34.1232 58.3 38.5232 55.5C40.6898 54.1667 47.4232 51.5 57.0232 51.5C61.0232 51.8333 69.0232 51.2 69.0232 46C69.1898 42.6667 65.5232 35.3 49.5232 32.5V41.5L39.0232 44L31.0232 43.5L30.0232 45L22.0232 44V42L18.0232 41L20.0232 32.5L18.5232 32ZM22.0232 44L30.5232 45.5L32.0232 44.5H37.5232L45.0232 43.5L50.5232 41.5L50.0232 35.5C64.0232 39.1 66.5232 44 66.0232 46C65.6232 48.4 57.1898 49 53.0232 49C44.6232 49.4 38.5232 52.1667 36.5232 53.5C32.9232 55.9 22.6898 56.5 18.0232 56.5C6.02316 56.5 2.68983 50.1667 2.52316 47C2.12316 40.6 12.6898 36 18.0232 34.5H19.0232L17.5232 41.5L21.5232 43L22.0232 44Z"/>
    <path fill-rule="evenodd" clip-rule="evenodd" d="M50.2919 42.7323C35.2764 47.393 22.7156 44.5605 17.6465 42.2942C17.2653 42.1238 17.0519 41.7247 17.101 41.3101C18.3988 30.3456 22.5642 19.5811 24.5232 15.5C30.1232 3.1 40.5232 0 45.0232 0C55.8806 0 57.4601 7.36768 56.7984 12.1038C56.7025 12.7901 55.916 13.0844 55.3293 12.7157C48.651 8.5197 46.3384 10.4238 46.0232 12C44.8232 16.8 46.8565 23.6666 48.0232 26.5C49.8895 30.6059 50.7399 37.9338 50.9807 41.7391C51.0091 42.189 50.7225 42.5986 50.2919 42.7323ZM44.0232 3C49.4693 3 52.2072 4.90716 53.3622 6.5576C53.7857 7.1627 53.1864 7.78746 52.4546 7.688C44.2874 6.57806 39.2238 14.0659 37.5852 18.3354C37.5427 18.4461 37.5207 18.5615 37.5304 18.6796C37.618 19.7388 38.4796 20.2218 39.25 20.4053C39.6964 20.5116 40.0979 20.1857 40.2321 19.7469C40.6121 18.5037 41.0975 17.5039 41.5715 16.7402C42.0306 16.0004 42.9879 16.4044 43.073 17.271C43.5299 21.9267 45.7541 29.8673 47.2024 34.4904C47.3743 35.0393 47.0539 35.6228 46.4935 35.7523C36.6229 38.0339 26.4818 36.497 21.8269 35.232C21.3584 35.1047 21.0659 34.6483 21.1358 34.168C22.0223 28.0823 24.1843 22.4675 25.0232 20.5C29.5 10 35.0232 3 44.0232 3ZM34.0702 38.5385C37.4815 38.6309 43.1946 38.4924 46.4549 37.4285C47.0335 37.2397 47.6796 37.5221 47.7842 38.1216C47.8797 38.6683 47.9668 39.3658 48.0041 40.1724C48.0262 40.652 47.6842 41.065 47.2117 41.1502C43.7297 41.7782 37.4975 42.7043 33.9132 42.5638C33.404 42.5438 33.0232 42.1149 33.0232 41.6053V39.5486C33.0232 38.9776 33.4994 38.523 34.0702 38.5385ZM21.1852 36.7207L21.109 36.6953C20.7496 36.5755 20.3682 36.6872 20.2341 37.0415C19.9898 37.6872 19.7599 38.7193 19.6135 39.4938C19.5535 39.8111 19.6615 40.1447 19.9638 40.2583C20.1363 40.323 20.3316 40.3719 20.5286 40.4081C21.0718 40.5079 21.5361 40.0519 21.6053 39.504C21.6715 38.9793 21.7685 38.3833 21.8602 37.8673C21.9484 37.3708 21.6636 36.8802 21.1852 36.7207ZM25.522 37.1665L29.6203 37.8495C30.1313 37.9347 30.4927 38.3961 30.453 38.9126L30.1059 43.4243C30.0613 44.0047 29.5322 44.4245 28.9568 44.3359L24.5115 43.6521C23.9657 43.5681 23.5912 43.0575 23.6752 42.5116L24.3692 38.0008C24.4539 37.4501 24.9724 37.0749 25.522 37.1665Z"/>
    <path fill-rule="evenodd" clip-rule="evenodd" d="M23.3012 35.388L21.2799 43.4732C21.1405 44.0306 21.4985 44.5906 22.0629 44.6981L30.4942 46.304C31.0546 46.4108 31.5906 46.0279 31.6713 45.4631L32.8838 36.9755C32.9611 36.4345 32.5897 35.9316 32.0498 35.8463L24.4273 34.6428C23.9155 34.562 23.4268 34.8854 23.3012 35.388ZM25.522 37.1665L29.6203 37.8496C30.1313 37.9347 30.4927 38.3961 30.453 38.9126L30.1059 43.4243C30.0613 44.0047 29.5322 44.4245 28.9568 44.336L24.5115 43.6521C23.9657 43.5681 23.5912 43.0575 23.6752 42.5117L24.3692 38.0008C24.4539 37.4501 24.9724 37.0749 25.522 37.1665Z"/>
    <path d="M25.1646 41.0101L25.3817 39.4899C25.4598 38.9432 25.9664 38.5633 26.5131 38.6414L28.0332 38.8586C28.5799 38.9367 28.9598 39.4432 28.8817 39.9899L28.6646 41.5101C28.5865 42.0568 28.0799 42.4367 27.5332 42.3586L26.0131 42.1414C25.4664 42.0633 25.0865 41.5568 25.1646 41.0101Z"/>
    <path d="M39.5912 5.08057C36.7325 5.7816 33.2783 9.81388 31.4872 12.328C31.2249 12.6962 31.3281 13.2033 31.7043 13.4541C32.1302 13.738 32.7092 13.5656 32.9536 13.1159C34.5386 10.2007 37.6393 7.4333 39.9087 6.28047C40.2337 6.11537 40.3833 5.72036 40.2203 5.39431C40.1022 5.15802 39.8478 5.01764 39.5912 5.08057Z"/>
    <path d="M12.9291 53.8547C0.754148 50.7583 3.83874 44.0698 7.40263 40.5735C7.63874 40.3418 8.02316 40.5156 8.02316 40.8463C8.02316 40.945 7.98164 41.0436 7.91436 41.1158C1.0909 48.4349 8.30675 51.9788 13.1308 52.9276C13.3577 52.9722 13.5232 53.1689 13.5232 53.4002C13.5232 53.7065 13.226 53.9302 12.9291 53.8547Z"/>
    <path d="M61.9788 46.9923C68.0938 46.7763 61.736 42.0765 57.1754 39.3793C56.8852 39.2077 56.5232 39.4195 56.5232 39.7566C56.5232 39.908 56.607 40.0523 56.7352 40.1328C65.3461 45.5406 64.1235 46.3846 62.0682 46.0974C61.7864 46.0581 61.5232 46.2684 61.5232 46.553C61.5232 46.7999 61.7321 47.001 61.9788 46.9923Z"/>
</svg>
