<svg viewBox="0 0 61 61"
    xmlns="http://www.w3.org/2000/svg">
    <path fill-rule="evenodd" clip-rule="evenodd" d="M32.6784 18.6147L36.5238 22.46L10.4631 48.5207L10.6144 48.6721C10.5199 48.5775 10.3843 48.5365 10.2531 48.5627L7.04629 49.2041C6.96885 49.2196 6.89773 49.2576 6.84189 49.3135L6.02197 50.1334L2.293 9.11467C2.20832 8.18321 3.33464 7.65567 3.996 8.31702L6.024 10.345C6.19279 10.5138 6.4164 10.6167 6.65441 10.635L24.435 12.0027C24.5898 12.0146 24.7397 12.0624 24.8728 12.1423L31.0536 15.8507C31.4555 16.0919 31.636 16.5798 31.4877 17.0245L31.3787 17.3516C31.2093 17.8599 31.5876 18.3848 32.1234 18.3848C32.3316 18.3848 32.5312 18.4675 32.6784 18.6147ZM37.3983 20.5061C37.6146 20.7224 37.9054 20.8189 38.1882 20.7956L41.2233 17.7605C41.2466 17.4777 41.1502 17.1869 40.9338 16.9706L38.1054 14.1421C37.7149 13.7516 37.0817 13.7516 36.6912 14.1421L34.5698 16.2635C34.1793 16.654 34.1793 17.2871 34.5698 17.6777L37.3983 20.5061ZM0.00345752 0.900286L4.60776 51.5476L0.714939 55.4404C0.62037 55.535 0.579321 55.6705 0.60555 55.8017L0.828258 56.9152C0.875442 57.1512 1.11873 57.2923 1.34698 57.2163L3.34015 56.5519C3.65286 56.4476 3.95035 56.7451 3.84612 57.0578L3.18173 59.051C3.10564 59.2793 3.24683 59.5225 3.48275 59.5697L4.59629 59.7924C4.72744 59.8187 4.86301 59.7776 4.95758 59.683L8.57139 56.0692L59.8325 60.7293C60.316 60.7733 60.7328 60.3926 60.7328 59.9072C60.7328 59.5945 60.5561 59.3086 60.2764 59.1688L58.0495 58.0553C57.9534 58.0073 57.8656 57.944 57.7896 57.868L53.9672 54.0456C53.7723 53.8507 53.6665 53.5838 53.6748 53.3082L54.3644 30.5523C54.3673 30.455 54.3845 30.3587 54.4152 30.2663L54.6372 29.6005C54.853 28.953 54.3711 28.2843 53.6885 28.2843H52.7827C52.4483 28.2843 52.1361 28.1172 51.9506 27.839L49.6904 24.4486C49.5192 24.1918 49.4762 23.8704 49.5737 23.5776L49.7818 22.9535C49.9512 22.4452 49.5729 21.9203 49.0371 21.9203C48.8289 21.9203 48.6293 21.8376 48.4821 21.6904L44.4693 17.6777C44.4117 17.62 44.3487 17.5708 44.282 17.5302L45.1113 16.7009L45.3557 16.9453C45.4242 17.0138 45.5216 17.045 45.6171 17.0291L49.5488 16.3738C49.6479 16.3573 49.7322 16.2923 49.7733 16.2006L53.9815 6.8129C54.0943 6.56136 53.8366 6.30367 53.5851 6.41643L44.1974 10.6247C44.1057 10.6658 44.0407 10.75 44.0242 10.8491L43.3689 14.7809C43.353 14.8764 43.3842 14.9738 43.4527 15.0423L43.6971 15.2867L42.8877 16.096L39.0424 12.2507C38.8952 12.1035 38.8125 11.9039 38.8125 11.6957C38.8125 11.1599 38.2876 10.7816 37.7793 10.951L37.1552 11.159C36.8624 11.2566 36.541 11.2136 36.2842 11.0424L32.8938 8.78215C32.6156 8.59668 32.4485 8.28445 32.4485 7.9501V7.04428C32.4485 6.36172 31.7798 5.87975 31.1323 6.0956L30.4664 6.31755C30.3741 6.34833 30.2778 6.36546 30.1805 6.36841L7.42456 7.05798C7.14895 7.06633 6.88213 6.96052 6.68716 6.76555L2.86479 2.94317C2.78879 2.86717 2.72554 2.77942 2.67747 2.68328L1.564 0.45635C1.42416 0.176668 1.1383 0 0.825612 0C0.340166 0 -0.0404923 0.416833 0.00345752 0.900286ZM37.9579 23.8543L11.8773 49.9349L11.7259 49.7836C11.8205 49.8781 11.8615 50.0137 11.8353 50.1448L11.1939 53.3517C11.1784 53.4291 11.1404 53.5003 11.0845 53.5561L9.9856 54.655L51.6181 58.4398C52.5496 58.5245 53.0771 57.3981 52.4158 56.7368L50.3878 54.7088C50.219 54.54 50.1161 54.3164 50.0978 54.0784L48.7301 36.2978C48.7182 36.143 48.6704 35.9931 48.5905 35.86L44.882 29.6792C44.6409 29.2773 44.153 29.0968 43.7083 29.245L43.3812 29.3541C42.8729 29.5235 42.348 29.1452 42.348 28.6094C42.348 28.4012 42.2653 28.2016 42.1181 28.0544L38.1054 24.0416C38.0477 23.984 37.9985 23.921 37.9579 23.8543ZM33.8627 12.7279L33.3074 12.1726C33.2074 12.0725 33.0872 11.9949 32.9549 11.9447L23.1966 8.24326C23.0177 8.17538 22.8155 8.21877 22.6802 8.3541C22.4433 8.591 22.5113 8.99088 22.8131 9.13623L31.5883 13.3613C31.6897 13.4101 31.782 13.4757 31.8616 13.5552L32.4485 14.1421C32.8391 14.5327 33.4722 14.5327 33.8627 14.1421C34.2533 13.7516 34.2533 13.1184 33.8627 12.7279ZM44.4693 26.1629L46.5907 24.0416C46.9812 23.6511 46.9812 23.0179 46.5907 22.6274L43.7622 19.799C43.3717 19.4085 42.7385 19.4085 42.348 19.799L40.2267 21.9203C39.8362 22.3108 39.8362 22.944 40.2267 23.3345L43.0551 26.1629C43.4456 26.5535 44.0788 26.5535 44.4693 26.1629ZM48.5602 27.4254L48.0049 26.8701C47.6143 26.4795 46.9812 26.4795 46.5907 26.8701C46.2001 27.2606 46.2001 27.8937 46.5907 28.2843L47.1776 28.8712C47.2571 28.9507 47.3227 29.0431 47.3715 29.1445L51.5966 37.9197C51.7419 38.2215 52.1418 38.2895 52.3787 38.0526C52.514 37.9172 52.5574 37.7151 52.4895 37.5362L48.7881 27.7778C48.7379 27.6456 48.6602 27.5254 48.5602 27.4254Z"/>
</svg>
