<svg width="42" height="65" viewBox="0 0 42 65" fill="none"
    xmlns="http://www.w3.org/2000/svg">
    <path fill-rule="evenodd" clip-rule="evenodd" d="M42 44C42 55.598 32.598 65 21 65C9.40202 65 0 55.598 0 44C0 34.4869 6.32553 26.4513 15 23.8696V25.9668C7.44685 28.4787 2 35.6032 2 44C2 54.4934 10.5066 63 21 63C31.4934 63 40 54.4934 40 44C40 35.6032 34.5532 28.4787 27 25.9668V23.8696C35.6745 26.4513 42 34.4869 42 44Z" fill="#222222"/>
    <path fill-rule="evenodd" clip-rule="evenodd" d="M8.01312 54.9708C9.3605 51.9579 13.5244 45.4935 21 43.5002C24.4927 42.5021 32.9646 39.0146 33.9937 33.0376C36.4933 35.9974 38 39.8228 38 44.0002C38 53.389 30.3888 61.0002 21 61.0002C15.7923 61.0002 11.1315 58.6586 8.01312 54.9708ZM32.681 31.6489C32.7996 31.761 32.9165 31.8749 33.0318 31.9904C32.915 31.8745 32.7981 31.7607 32.681 31.6489Z" fill="#222222"/>
    <circle cx="26.5" cy="32.5" r="1.5" fill="#222222"/>
    <circle cx="20" cy="31" r="2" fill="#222222"/>
    <circle cx="23" cy="38" r="1" fill="#222222"/>
    <rect x="13" y="9" width="2" height="17" fill="#222222"/>
    <rect x="27" y="9" width="2" height="17" fill="#222222"/>
    <path fill-rule="evenodd" clip-rule="evenodd" d="M9 4.5C9 2.01472 11.0147 0 13.5 0H28.5C30.9853 0 33 2.01472 33 4.5V4.5C33 6.98528 30.9853 9 28.5 9H22C21.4477 9 21 8.55228 21 8V8C21 7.44772 21.4477 7 22 7H28.5C29.8807 7 31 5.88071 31 4.5V4.5C31 3.11929 29.8807 2 28.5 2H13.5C12.1193 2 11 3.11929 11 4.5V4.5C11 5.88071 12.1193 7 13.5 7H16C16.5523 7 17 7.44772 17 8V8C17 8.55228 16.5523 9 16 9H13C10.7909 9 9 7.20914 9 5V4.5Z" fill="#222222"/>
</svg>