<svg viewBox="0 0 170 196"
    xmlns="http://www.w3.org/2000/svg">
    <path fill-rule="evenodd" clip-rule="evenodd" d="M84.4375 25.7427L7.92963 47.291L84.4375 2.89268V25.7427ZM86.4375 25.7424L162.836 47.2279L86.4375 2.89267V25.7424ZM167.875 56.2844L144.628 131.04L167.875 144.715V56.2844ZM166.859 146.438L143.021 132.415L89.9559 191.066L166.859 146.438ZM167.539 50.628L143 129.539L87.1386 28.0172L167.539 50.628ZM85.4337 29.0675L141.246 130.5H29.1362L85.4337 29.0675ZM3.33727 50.6623L27.384 129.536L83.7273 28.0206L3.33727 50.6623ZM4.02995 146.446L27.3839 132.398L81.1045 191.173L4.02995 146.446ZM85.4375 196L85.4889 195.97L85.5038 195.986L85.551 195.934L169.875 147V49.853L169.892 49.7969L169.875 49.7915V49L85.4375 0L0.999997 49V49.7858L0.980942 49.7916L0.999997 49.8541V147L85.4375 196ZM3 56.4141L25.7534 131.045L3 144.732V56.4141ZM30.1863 132.5L85.4962 193.014L140.247 132.5H30.1863ZM59.328 122L65.304 105.152H60.96L56.76 117.872L52.584 105.152H48.216L54.192 122H59.328ZM80.2432 122V108.608H76.1393V115.88C76.1393 116.776 75.9072 117.472 75.4433 117.968C74.9792 118.464 74.3473 118.712 73.5472 118.712C72.7633 118.712 72.1393 118.464 71.6752 117.968C71.2113 117.472 70.9792 116.776 70.9792 115.88V108.608H66.8993V116.432C66.8993 117.6 67.1152 118.616 67.5472 119.48C67.9792 120.344 68.5872 121.008 69.3713 121.472C70.1553 121.92 71.0592 122.144 72.0833 122.144C72.9473 122.144 73.7312 121.968 74.4352 121.616C75.1553 121.248 75.7233 120.768 76.1393 120.176V122H80.2432ZM95.7431 116.288C95.7911 115.872 95.8151 115.472 95.8151 115.088C95.8151 113.744 95.5271 112.568 94.9511 111.56C94.3911 110.552 93.6071 109.776 92.5991 109.232C91.5911 108.688 90.4391 108.416 89.1431 108.416C87.8151 108.416 86.6391 108.696 85.6151 109.256C84.5911 109.816 83.7911 110.616 83.2151 111.656C82.6551 112.696 82.3751 113.912 82.3751 115.304C82.3751 116.696 82.6631 117.912 83.2391 118.952C83.8151 119.992 84.6151 120.792 85.6391 121.352C86.6631 121.912 87.8311 122.192 89.1431 122.192C90.2311 122.192 91.2151 121.992 92.0951 121.592C92.9751 121.192 93.7031 120.64 94.2791 119.936C94.8711 119.232 95.2791 118.44 95.5031 117.56H91.1351C90.7351 118.424 90.0231 118.856 88.9991 118.856C88.3111 118.856 87.7271 118.64 87.2471 118.208C86.7831 117.76 86.5191 117.12 86.4551 116.288H95.7431ZM90.8951 112.328C91.3751 112.744 91.6151 113.304 91.6151 114.008H86.4791C86.5911 113.272 86.8791 112.704 87.3431 112.304C87.8231 111.904 88.4071 111.704 89.0951 111.704C89.8151 111.704 90.4151 111.912 90.8951 112.328ZM108.54 116.624V105.152H104.436V116.624C104.436 117.232 104.3 117.696 104.028 118.016C103.756 118.336 103.372 118.496 102.876 118.496C102.332 118.496 101.916 118.32 101.628 117.968C101.34 117.6 101.196 117.064 101.196 116.36H97.1162C97.1162 118.216 97.6522 119.648 98.7242 120.656C99.7962 121.664 101.22 122.168 102.996 122.168C104.692 122.168 106.036 121.688 107.028 120.728C108.036 119.768 108.54 118.4 108.54 116.624ZM114.183 121.592C115.095 121.992 116.135 122.192 117.303 122.192C118.391 122.192 119.343 122.016 120.159 121.664C120.991 121.312 121.623 120.832 122.055 120.224C122.503 119.6 122.727 118.896 122.727 118.112C122.711 117.184 122.463 116.448 121.983 115.904C121.519 115.344 120.975 114.944 120.351 114.704C119.727 114.448 118.919 114.192 117.927 113.936C117.063 113.744 116.423 113.552 116.007 113.36C115.607 113.168 115.407 112.88 115.407 112.496C115.407 112.176 115.535 111.928 115.791 111.752C116.047 111.56 116.415 111.464 116.895 111.464C117.455 111.464 117.903 111.6 118.239 111.872C118.591 112.144 118.799 112.512 118.863 112.976H122.655C122.511 111.6 121.951 110.496 120.975 109.664C120.015 108.832 118.695 108.416 117.015 108.416C115.879 108.416 114.895 108.6 114.063 108.968C113.247 109.336 112.623 109.84 112.191 110.48C111.775 111.104 111.567 111.8 111.567 112.568C111.567 113.48 111.799 114.208 112.263 114.752C112.727 115.28 113.279 115.672 113.919 115.928C114.559 116.168 115.359 116.4 116.319 116.624C117.215 116.848 117.863 117.056 118.263 117.248C118.663 117.424 118.863 117.704 118.863 118.088C118.863 118.408 118.719 118.672 118.431 118.88C118.159 119.072 117.767 119.168 117.255 119.168C116.695 119.168 116.223 119.024 115.839 118.736C115.455 118.448 115.239 118.072 115.191 117.608H111.135C111.199 118.472 111.495 119.256 112.023 119.96C112.551 120.648 113.271 121.192 114.183 121.592Z" />
</svg>
