<svg width="170" height="196" viewBox="0 0 170 196" fill="none"
    xmlns="http://www.w3.org/2000/svg">
    <path fill-rule="evenodd" clip-rule="evenodd" d="M7.92963 47.291L84.4375 25.7427V2.89268L7.92963 47.291ZM162.836 47.2279L86.4375 25.7424V2.89267L162.836 47.2279ZM144.628 131.04L167.875 56.2844V144.715L144.628 131.04ZM143.021 132.415L166.859 146.438L89.9559 191.066L143.021 132.415ZM143 129.539L167.539 50.628L87.1386 28.0172L143 129.539ZM141.246 130.5L85.4337 29.0675L29.1362 130.5H141.246ZM27.384 129.536L3.33727 50.6623L83.7273 28.0206L27.384 129.536ZM27.3839 132.398L4.02995 146.446L81.1045 191.173L27.3839 132.398ZM85.4889 195.97L85.4375 196L0.999997 147V49.8541L0.980942 49.7916L0.999997 49.7858V49L85.4375 0L169.875 49V49.7915L169.892 49.7969L169.875 49.853V147L85.551 195.934L85.5038 195.986L85.4889 195.97ZM25.7534 131.045L3 56.4141V144.732L25.7534 131.045ZM85.4962 193.014L30.1863 132.5H140.247L85.4962 193.014Z" class="color-1"/>
    <path d="M65.304 105.152L59.328 122H54.192L48.216 105.152H52.584L56.76 117.872L60.96 105.152H65.304ZM80.2433 108.608V122H76.1393V120.176C75.7233 120.768 75.1553 121.248 74.4353 121.616C73.7313 121.968 72.9473 122.144 72.0833 122.144C71.0593 122.144 70.1553 121.92 69.3713 121.472C68.5873 121.008 67.9793 120.344 67.5473 119.48C67.1153 118.616 66.8993 117.6 66.8993 116.432V108.608H70.9793V115.88C70.9793 116.776 71.2113 117.472 71.6753 117.968C72.1393 118.464 72.7633 118.712 73.5473 118.712C74.3473 118.712 74.9793 118.464 75.4433 117.968C75.9073 117.472 76.1393 116.776 76.1393 115.88V108.608H80.2433ZM95.8151 115.088C95.8151 115.472 95.7911 115.872 95.7431 116.288H86.4551C86.5191 117.12 86.7831 117.76 87.2471 118.208C87.7271 118.64 88.3111 118.856 88.9991 118.856C90.0231 118.856 90.7351 118.424 91.1351 117.56H95.5031C95.2791 118.44 94.8711 119.232 94.2791 119.936C93.7031 120.64 92.9751 121.192 92.0951 121.592C91.2151 121.992 90.2311 122.192 89.1431 122.192C87.8311 122.192 86.6631 121.912 85.6391 121.352C84.6151 120.792 83.8151 119.992 83.2391 118.952C82.6631 117.912 82.3751 116.696 82.3751 115.304C82.3751 113.912 82.6551 112.696 83.2151 111.656C83.7911 110.616 84.5911 109.816 85.6151 109.256C86.6391 108.696 87.8151 108.416 89.1431 108.416C90.4391 108.416 91.5911 108.688 92.5991 109.232C93.6071 109.776 94.3911 110.552 94.9511 111.56C95.5271 112.568 95.8151 113.744 95.8151 115.088ZM91.6151 114.008C91.6151 113.304 91.3751 112.744 90.8951 112.328C90.4151 111.912 89.8151 111.704 89.0951 111.704C88.4071 111.704 87.8231 111.904 87.3431 112.304C86.8791 112.704 86.5911 113.272 86.4791 114.008H91.6151ZM108.54 105.152V116.624C108.54 118.4 108.036 119.768 107.028 120.728C106.036 121.688 104.692 122.168 102.996 122.168C101.22 122.168 99.7962 121.664 98.7242 120.656C97.6522 119.648 97.1162 118.216 97.1162 116.36H101.196C101.196 117.064 101.34 117.6 101.628 117.968C101.916 118.32 102.332 118.496 102.876 118.496C103.372 118.496 103.756 118.336 104.028 118.016C104.3 117.696 104.436 117.232 104.436 116.624V105.152H108.54ZM117.303 122.192C116.135 122.192 115.095 121.992 114.183 121.592C113.271 121.192 112.551 120.648 112.023 119.96C111.495 119.256 111.199 118.472 111.135 117.608H115.191C115.239 118.072 115.455 118.448 115.839 118.736C116.223 119.024 116.695 119.168 117.255 119.168C117.767 119.168 118.159 119.072 118.431 118.88C118.719 118.672 118.863 118.408 118.863 118.088C118.863 117.704 118.663 117.424 118.263 117.248C117.863 117.056 117.215 116.848 116.319 116.624C115.359 116.4 114.559 116.168 113.919 115.928C113.279 115.672 112.727 115.28 112.263 114.752C111.799 114.208 111.567 113.48 111.567 112.568C111.567 111.8 111.775 111.104 112.191 110.48C112.623 109.84 113.247 109.336 114.063 108.968C114.895 108.6 115.879 108.416 117.015 108.416C118.695 108.416 120.015 108.832 120.975 109.664C121.951 110.496 122.511 111.6 122.655 112.976H118.863C118.799 112.512 118.591 112.144 118.239 111.872C117.903 111.6 117.455 111.464 116.895 111.464C116.415 111.464 116.047 111.56 115.791 111.752C115.535 111.928 115.407 112.176 115.407 112.496C115.407 112.88 115.607 113.168 116.007 113.36C116.423 113.552 117.063 113.744 117.927 113.936C118.919 114.192 119.727 114.448 120.351 114.704C120.975 114.944 121.519 115.344 121.983 115.904C122.463 116.448 122.711 117.184 122.727 118.112C122.727 118.896 122.503 119.6 122.055 120.224C121.623 120.832 120.991 121.312 120.159 121.664C119.343 122.016 118.391 122.192 117.303 122.192Z" class="color-2"/>
</svg>
